<svg width="40" height="40" viewBox="0 0 40 40" fill="none" xmlns="http://www.w3.org/2000/svg">
<path fill-rule="evenodd" clip-rule="evenodd" d="M16.3015 8.39489C16.4588 7.86411 16.9464 7.5 17.5 7.5H22.5C23.0536 7.5 23.5412 7.86411 23.6985 8.39489L28.6985 25.2699C28.8072 25.6368 28.7419 26.0332 28.5212 26.3459L21.0212 36.9709C20.787 37.3027 20.4062 37.5 20 37.5C19.5939 37.5 19.213 37.3027 18.9788 36.9709L11.4788 26.3459C11.2581 26.0332 11.1928 25.6368 11.3015 25.2699L16.3015 8.39489ZM18.4334 10L13.8706 25.3992L20 34.0824L26.1294 25.3992L21.5667 10H18.4334Z" fill="#00BAFF"/>
<path fill-rule="evenodd" clip-rule="evenodd" d="M13.75 3.75C13.75 3.05964 14.3096 2.5 15 2.5H25C25.6904 2.5 26.25 3.05964 26.25 3.75V8.75C26.25 9.44036 25.6904 10 25 10H15C14.3096 10 13.75 9.44036 13.75 8.75V3.75ZM16.25 5V7.5H23.75V5H16.25Z" fill="white"/>
</svg>
