<svg width="32" height="32" viewBox="0 0 32 32" fill="none" xmlns="http://www.w3.org/2000/svg">
<path fill-rule="evenodd" clip-rule="evenodd" d="M13.0412 6.71591C13.167 6.29129 13.5571 6 14 6H18C18.4429 6 18.833 6.29129 18.9588 6.71591L22.9588 20.2159C23.0458 20.5094 22.9935 20.8266 22.817 21.0767L16.817 29.5767C16.6296 29.8421 16.3249 30 16 30C15.6751 30 15.3704 29.8421 15.183 29.5767L9.18304 21.0767C9.0065 20.8266 8.95424 20.5094 9.04121 20.2159L13.0412 6.71591ZM14.7467 8L11.0965 20.3193L16 27.2659L20.9035 20.3193L17.2533 8H14.7467Z" fill="#00BAFF"/>
<path fill-rule="evenodd" clip-rule="evenodd" d="M11 3C11 2.44772 11.4477 2 12 2H20C20.5523 2 21 2.44772 21 3V7C21 7.55228 20.5523 8 20 8H12C11.4477 8 11 7.55228 11 7V3ZM13 4V6H19V4H13Z" fill="white"/>
</svg>
