<svg width="28" height="29" viewBox="0 0 28 29" fill="none" xmlns="http://www.w3.org/2000/svg">
<path d="M14 0.5C6.26875 0.5 0 6.93125 0 14.8562C0 21.2 4.0125 26.575 9.575 28.475C9.65302 28.4919 9.73266 28.5003 9.8125 28.5C10.3313 28.5 10.5312 28.1187 10.5312 27.7875C10.5312 27.4437 10.5188 26.5437 10.5125 25.3437C10.0494 25.4523 9.57564 25.5089 9.1 25.5125C6.40625 25.5125 5.79375 23.4187 5.79375 23.4187C5.15625 21.7625 4.2375 21.3187 4.2375 21.3187C3.01875 20.4625 4.23125 20.4375 4.325 20.4375H4.33125C5.7375 20.5625 6.475 21.925 6.475 21.925C7.175 23.15 8.1125 23.4937 8.95 23.4937C9.50377 23.4827 10.049 23.3549 10.55 23.1187C10.675 22.1937 11.0375 21.5625 11.4375 21.2C8.33125 20.8375 5.0625 19.6062 5.0625 14.1062C5.0625 12.5375 5.60625 11.2562 6.5 10.2562C6.35625 9.89375 5.875 8.43125 6.6375 6.45625C6.73978 6.43177 6.8449 6.42126 6.95 6.425C7.45625 6.425 8.6 6.61875 10.4875 7.93125C12.781 7.28957 15.2065 7.28957 17.5 7.93125C19.3875 6.61875 20.5312 6.425 21.0375 6.425C21.1426 6.42126 21.2477 6.43177 21.35 6.45625C22.1125 8.43125 21.6312 9.89375 21.4875 10.2562C22.3812 11.2625 22.925 12.5437 22.925 14.1062C22.925 19.6187 19.65 20.8312 16.5312 21.1875C17.0312 21.6312 17.4813 22.5062 17.4813 23.8437C17.4813 25.7625 17.4625 27.3125 17.4625 27.7812C17.4625 28.1187 17.6562 28.5 18.175 28.5C18.259 28.5004 18.3428 28.492 18.425 28.475C23.9937 26.575 28 21.1937 28 14.8562C28 6.93125 21.7313 0.5 14 0.5Z" fill="white"/>
</svg>
