<svg width="28" height="29" viewBox="0 0 28 29" fill="none" xmlns="http://www.w3.org/2000/svg">
<path fill-rule="evenodd" clip-rule="evenodd" d="M8.75 0.5H19.25C24.0817 0.5 28 4.41825 28 9.25V19.75C28 24.5817 24.0817 28.5 19.25 28.5H8.75C3.91825 28.5 0 24.5817 0 19.75V9.25C0 4.41825 3.91825 0.5 8.75 0.5ZM19.25 25.875C22.6275 25.875 25.375 23.1275 25.375 19.75V9.25C25.375 5.8725 22.6275 3.125 19.25 3.125H8.75C5.3725 3.125 2.625 5.8725 2.625 9.25V19.75C2.625 23.1275 5.3725 25.875 8.75 25.875H19.25Z" fill="white"/>
<path fill-rule="evenodd" clip-rule="evenodd" d="M7 14.5C7 10.6342 10.1342 7.5 14 7.5C17.8657 7.5 21 10.6342 21 14.5C21 18.3657 17.8657 21.5 14 21.5C10.1342 21.5 7 18.3657 7 14.5ZM9.625 14.5C9.625 16.9115 11.5885 18.875 14 18.875C16.4115 18.875 18.375 16.9115 18.375 14.5C18.375 12.0868 16.4115 10.125 14 10.125C11.5885 10.125 9.625 12.0868 9.625 14.5Z" fill="white"/>
<circle cx="21.5265" cy="6.97572" r="0.93275" fill="white"/>
</svg>
