<svg width="28" height="29" viewBox="0 0 28 29" fill="none" xmlns="http://www.w3.org/2000/svg">
<path d="M25.7606 0.5H2.3925C1.11562 0.5 0 1.41875 0 2.68062V26.1006C0 27.3694 1.11562 28.5 2.3925 28.5H25.7537C27.0375 28.5 28 27.3619 28 26.1006V2.68062C28.0075 1.41875 27.0375 0.5 25.7606 0.5ZM8.67936 23.8394H4.66812V11.3675H8.67936V23.8394ZM6.81249 9.47125H6.78374C5.49999 9.47125 4.66874 8.51562 4.66874 7.31938C4.66874 6.10125 5.52187 5.16813 6.83436 5.16813C8.14686 5.16813 8.94999 6.09438 8.97874 7.31938C8.97811 8.51562 8.14686 9.47125 6.81249 9.47125ZM23.3393 23.8394H19.3281V17.02C19.3281 15.3863 18.7443 14.27 17.2931 14.27C16.1844 14.27 15.5281 15.02 15.2362 15.7506C15.1269 16.0131 15.0975 16.3706 15.0975 16.7356V23.8394H11.0862V11.3675H15.0975V13.1031C15.6812 12.2719 16.5931 11.0756 18.715 11.0756C21.3481 11.0756 23.34 12.8113 23.34 16.5531L23.3393 23.8394Z" fill="white"/>
</svg>
