<svg width="40" height="40" viewBox="0 0 40 40" fill="none" xmlns="http://www.w3.org/2000/svg">
<path fill-rule="evenodd" clip-rule="evenodd" d="M27.5 17.5C27.5 16.8096 28.0596 16.25 28.75 16.25H35C35.6904 16.25 36.25 16.8096 36.25 17.5V36.25C36.25 36.9404 35.6904 37.5 35 37.5H28.75C28.0596 37.5 27.5 36.9404 27.5 36.25V17.5ZM30 18.75V35H33.75V18.75H30ZM15 22.5C15 21.8096 15.5596 21.25 16.25 21.25H22.5C23.1904 21.25 23.75 21.8096 23.75 22.5V36.25C23.75 36.9404 23.1904 37.5 22.5 37.5H16.25C15.5596 37.5 15 36.9404 15 36.25V22.5ZM17.5 23.75V35H21.25V23.75H17.5ZM2.5 27.5C2.5 26.8096 3.05964 26.25 3.75 26.25H10C10.6904 26.25 11.25 26.8096 11.25 27.5V36.25C11.25 36.9404 10.6904 37.5 10 37.5H3.75C3.05964 37.5 2.5 36.9404 2.5 36.25V27.5ZM5 28.75V35H8.75V28.75H5Z" fill="white"/>
<path fill-rule="evenodd" clip-rule="evenodd" d="M30.0002 3.75C30.0002 3.05964 30.5599 2.5 31.2502 2.5H36.2502C36.9406 2.5 37.5002 3.05964 37.5002 3.75V8.75C37.5002 9.44036 36.9406 10 36.2502 10C35.5599 10 35.0002 9.44036 35.0002 8.75V6.53356L25.8307 14.6843C25.4161 15.0528 24.8081 15.104 24.3377 14.81L14.9629 8.95071L4.35728 14.8427C3.7538 15.178 2.9928 14.9605 2.65753 14.3571C2.32226 13.7536 2.53969 12.9926 3.14317 12.6573L14.3932 6.4073C14.7908 6.18641 15.277 6.19893 15.6627 6.44L24.8692 12.194L32.9625 5H31.2502C30.5599 5 30.0002 4.44036 30.0002 3.75Z" fill="#00BAFF"/>
</svg>
