<svg width="32" height="32" viewBox="0 0 32 32" fill="none" xmlns="http://www.w3.org/2000/svg">
<path fill-rule="evenodd" clip-rule="evenodd" d="M22 14C22 13.4477 22.4477 13 23 13H28C28.5523 13 29 13.4477 29 14V29C29 29.5523 28.5523 30 28 30H23C22.4477 30 22 29.5523 22 29V14ZM24 15V28H27V15H24ZM12 18C12 17.4477 12.4477 17 13 17H18C18.5523 17 19 17.4477 19 18V29C19 29.5523 18.5523 30 18 30H13C12.4477 30 12 29.5523 12 29V18ZM14 19V28H17V19H14ZM2 22C2 21.4477 2.44772 21 3 21H8C8.55228 21 9 21.4477 9 22V29C9 29.5523 8.55228 30 8 30H3C2.44772 30 2 29.5523 2 29V22ZM4 23V28H7V23H4Z" fill="white"/>
<path fill-rule="evenodd" clip-rule="evenodd" d="M24.0002 3C24.0002 2.44772 24.4479 2 25.0002 2H29.0002C29.5525 2 30.0002 2.44772 30.0002 3V7C30.0002 7.55228 29.5525 8 29.0002 8C28.4479 8 28.0002 7.55228 28.0002 7V5.22684L20.6645 11.7474C20.3328 12.0422 19.8465 12.0832 19.4702 11.848L11.9703 7.16056L3.48582 11.8742C3.00304 12.1424 2.39424 11.9684 2.12602 11.4856C1.85781 11.0029 2.03176 10.3941 2.51454 10.1258L11.5145 5.12584C11.8326 4.94913 12.2216 4.95914 12.5302 5.152L19.8953 9.75523L26.37 4H25.0002C24.4479 4 24.0002 3.55228 24.0002 3Z" fill="#00BAFF"/>
</svg>
