<svg width="40" height="40" viewBox="0 0 40 40" fill="none" xmlns="http://www.w3.org/2000/svg">
<path fill-rule="evenodd" clip-rule="evenodd" d="M7.54131 25.4556C8.13982 25.1115 8.90392 25.3178 9.24798 25.9163C10.3527 27.8381 11.9262 29.4488 13.8217 30.5982C15.7172 31.7475 17.8729 32.398 20.0878 32.4891C20.7775 32.5174 21.3137 33.0996 21.2854 33.7894C21.257 34.4791 20.6748 35.0153 19.9851 34.987C17.3483 34.8786 14.782 34.1041 12.5255 32.7359C10.269 31.3676 8.39575 29.4501 7.08057 27.1622C6.73652 26.5637 6.94279 25.7996 7.54131 25.4556Z" fill="white"/>
<path fill-rule="evenodd" clip-rule="evenodd" d="M33.7087 13.2944C33.1102 13.6385 32.3461 13.4322 32.002 12.8337C30.8973 10.9119 29.3238 9.30118 27.4283 8.15184C25.5328 7.0025 23.3771 6.35197 21.1622 6.26092C20.4725 6.23256 19.9363 5.6504 19.9646 4.96063C19.993 4.27085 20.5752 3.73467 21.2649 3.76303C23.9017 3.87142 26.468 4.64587 28.7245 6.01413C30.981 7.38239 32.8542 9.29989 34.1694 11.5878C34.5135 12.1863 34.3072 12.9504 33.7087 13.2944Z" fill="white"/>
<path fill-rule="evenodd" clip-rule="evenodd" d="M10 5C8.61929 5 7.5 6.11929 7.5 7.5C7.5 8.88071 8.61929 10 10 10C11.3807 10 12.5 8.88071 12.5 7.5C12.5 6.11929 11.3807 5 10 5ZM5 7.5C5 4.73858 7.23858 2.5 10 2.5C12.7614 2.5 15 4.73858 15 7.5C15 10.2614 12.7614 12.5 10 12.5C7.23858 12.5 5 10.2614 5 7.5Z" fill="#00BAFF"/>
<path fill-rule="evenodd" clip-rule="evenodd" d="M30 18.75C28.6193 18.75 27.5 19.8693 27.5 21.25C27.5 22.6307 28.6193 23.75 30 23.75C31.3807 23.75 32.5 22.6307 32.5 21.25C32.5 19.8693 31.3807 18.75 30 18.75ZM25 21.25C25 18.4886 27.2386 16.25 30 16.25C32.7614 16.25 35 18.4886 35 21.25C35 24.0114 32.7614 26.25 30 26.25C27.2386 26.25 25 24.0114 25 21.25Z" fill="#00BAFF"/>
<path fill-rule="evenodd" clip-rule="evenodd" d="M10 16.25C7.23858 16.25 5 18.4886 5 21.25V22.5C5 23.1904 4.44036 23.75 3.75 23.75C3.05964 23.75 2.5 23.1904 2.5 22.5V21.25C2.5 17.1079 5.85786 13.75 10 13.75C14.1421 13.75 17.5 17.1079 17.5 21.25V22.5C17.5 23.1904 16.9404 23.75 16.25 23.75C15.5596 23.75 15 23.1904 15 22.5V21.25C15 18.4886 12.7614 16.25 10 16.25Z" fill="#00BAFF"/>
<path fill-rule="evenodd" clip-rule="evenodd" d="M30 30C27.2386 30 25 32.2386 25 35V36.25C25 36.9404 24.4404 37.5 23.75 37.5C23.0596 37.5 22.5 36.9404 22.5 36.25V35C22.5 30.8579 25.8579 27.5 30 27.5C34.1421 27.5 37.5 30.8579 37.5 35V36.25C37.5 36.9404 36.9404 37.5 36.25 37.5C35.5596 37.5 35 36.9404 35 36.25V35C35 32.2386 32.7614 30 30 30Z" fill="#00BAFF"/>
</svg>
