<svg width="30" height="31" viewBox="0 0 30 31" fill="none" xmlns="http://www.w3.org/2000/svg">
<path d="M12.9759 7.43705L8.23969 1.97038C7.69369 1.34042 6.69269 1.34322 6.0585 1.97878L2.16372 5.88035C1.00453 7.04088 0.672727 8.76417 1.34332 10.1459C5.34957 18.4403 12.0393 25.1391 20.3286 29.1568C21.709 29.8273 23.431 29.4955 24.5902 28.335L28.5214 24.397C29.1584 23.7601 29.1598 22.7535 28.5242 22.2076L23.0362 17.4969C22.4622 17.0041 21.5704 17.0685 20.995 17.6452L19.0854 19.5575C18.9877 19.66 18.859 19.7275 18.7191 19.7498C18.5793 19.772 18.436 19.7478 18.3112 19.6807C15.1899 17.8834 12.6007 15.2909 10.8073 12.1674C10.7401 12.0424 10.7158 11.8989 10.738 11.7588C10.7603 11.6187 10.8279 11.4898 10.9305 11.3918L12.8345 9.48653C13.4113 8.90697 13.4743 8.01102 12.9759 7.43565V7.43705Z" stroke="white" stroke-width="2" stroke-linecap="round" stroke-linejoin="round"/>
</svg>
