<svg width="32" height="32" viewBox="0 0 32 32" fill="none" xmlns="http://www.w3.org/2000/svg">
<path d="M1.62704 17.9299C1.67405 17.7259 1.7951 17.5467 1.96674 17.4269L16.7235 7.41406L20.9155 14.6781L14.4019 17.8349L14.4019 30.4013L11.2019 30.4013L11.2019 19.3869L4.86914 22.4541C4.48674 22.6413 3.99874 22.4893 3.78594 22.1213L1.71234 18.5309C1.61044 18.348 1.58004 18.1339 1.62704 17.9299Z" fill="white"/>
<path d="M25.4115 1.8224C27.0754 2.26764 28.4945 3.35536 29.3568 4.84647C30.2182 6.33848 30.4516 8.11157 30.0057 9.77568C29.5598 11.4398 28.4711 12.8586 26.9792 13.7201C25.52 14.5601 23.8848 14.7233 22.3632 14.3841L17.6016 6.13447C18.0704 4.64647 19.0272 3.31207 20.4832 2.47207C21.9749 1.61084 23.7475 1.37716 25.4115 1.8224Z" fill="#00BAFF"/>
</svg>
