<svg width="37" height="29" viewBox="0 0 37 29" fill="none" xmlns="http://www.w3.org/2000/svg">
<path fill-rule="evenodd" clip-rule="evenodd" d="M28.725 8.45573L9.81838 8.45573C9.16577 8.45573 8.63672 7.91474 8.63672 7.24739C8.63672 6.58005 9.16577 6.03906 9.81838 6.03906L28.725 6.03906C29.3776 6.03906 29.9067 6.58005 29.9067 7.24739C29.9067 7.91474 29.3776 8.45573 28.725 8.45573Z" fill="white"/>
<path fill-rule="evenodd" clip-rule="evenodd" d="M31.8781 15.7057L6.6693 15.7057C5.79915 15.7057 5.09375 15.1647 5.09375 14.4974C5.09375 13.8301 5.79915 13.2891 6.6693 13.2891L31.8781 13.2891C32.7483 13.2891 33.4537 13.8301 33.4537 14.4974C33.4537 15.1647 32.7483 15.7057 31.8781 15.7057Z" fill="white"/>
<path fill-rule="evenodd" clip-rule="evenodd" d="M28.725 22.9557L9.81838 22.9557C9.16577 22.9557 8.63672 22.4147 8.63672 21.7474C8.63672 21.0801 9.16577 20.5391 9.81838 20.5391L28.725 20.5391C29.3776 20.5391 29.9067 21.0801 29.9067 21.7474C29.9067 22.4147 29.3776 22.9557 28.725 22.9557Z" fill="white"/>
</svg>
