<svg width="36" height="36" viewBox="0 0 36 36" fill="none" xmlns="http://www.w3.org/2000/svg">
<path fill-rule="evenodd" clip-rule="evenodd" d="M21.3286 28.4446C21.1871 28.9223 20.7482 29.25 20.25 29.25L15.75 29.25C15.2518 29.25 14.8129 28.9223 14.6713 28.4446L10.1713 13.2571C10.0735 12.9269 10.1323 12.5701 10.3309 12.2887L17.0809 2.72623C17.2917 2.4276 17.6345 2.25 18 2.25C18.3655 2.25 18.7083 2.4276 18.9191 2.72623L25.6691 12.2887C25.8677 12.5701 25.9265 12.9269 25.8286 13.2571L21.3286 28.4446ZM19.41 27L23.5164 13.1408L18 5.32581L12.4836 13.1408L16.59 27L19.41 27Z" fill="#00BAFF"/>
<path fill-rule="evenodd" clip-rule="evenodd" d="M23.625 32.625C23.625 33.2463 23.1213 33.75 22.5 33.75L13.5 33.75C12.8787 33.75 12.375 33.2463 12.375 32.625L12.375 28.125C12.375 27.5037 12.8787 27 13.5 27L22.5 27C23.1213 27 23.625 27.5037 23.625 28.125L23.625 32.625ZM21.375 31.5L21.375 29.25L14.625 29.25L14.625 31.5L21.375 31.5Z" fill="white"/>
<ellipse cx="17.9992" cy="16.1984" rx="1.8" ry="1.8" fill="#00BAFF"/>
<line x1="17.9414" y1="4.36328" x2="17.9414" y2="15.1633" stroke="#00BAFF" stroke-width="2"/>
</svg>
