<svg width="35" height="32" viewBox="0 0 35 32" fill="none" xmlns="http://www.w3.org/2000/svg">
<path d="M31.1111 0L3.88889 0C2.85749 0 1.86834 0.414842 1.13903 1.15327C0.409721 1.89169 0 2.89321 0 3.9375L0 27.5625C0 28.6068 0.409721 29.6083 1.13903 30.3467C1.86834 31.0852 2.85749 31.5 3.88889 31.5L31.1111 31.5C33.25 31.5 35 29.7281 35 27.5625L35 3.9375C35 2.89321 34.5903 1.89169 33.861 1.15327C33.1317 0.414842 32.1425 0 31.1111 0ZM32.5 28L3 28L3 6.69856L32.5 6.69856L32.5 28Z" fill="white"/>
<ellipse rx="0.972223" ry="0.984375" transform="matrix(1 0 0 -1 4.86089 2.95312)" fill="#00BAFF"/>
<ellipse rx="0.972223" ry="0.984375" transform="matrix(1 0 0 -1 8.75006 2.95312)" fill="#00BAFF"/>
<ellipse rx="0.972222" ry="0.984375" transform="matrix(1 0 0 -1 12.6387 2.95312)" fill="#00BAFF"/>
<path d="M14.5833 11.8125L9.72217 16.7344L14.5833 21.6563M20.4166 11.8125L25.2777 16.7344L20.4166 21.6563" stroke="#00BAFF"/>
</svg>
