<svg width="33" height="29" viewBox="0 0 33 29" fill="none" xmlns="http://www.w3.org/2000/svg">
<path d="M28.642 0L3.58025 0C2.63071 0 1.72006 0.381918 1.04863 1.06174C0.377203 1.74156 0 2.66359 0 3.625L0 25.375C0 26.3364 0.377203 27.2584 1.04863 27.9383C1.72006 28.6181 2.63071 29 3.58025 29L28.642 29C30.6111 29 32.2222 27.3688 32.2222 25.375L32.2222 3.625C32.2222 2.66359 31.845 1.74156 31.1736 1.06174C30.5022 0.381918 29.5915 0 28.642 0ZM29.9206 25.7778L2.7619 25.7778L2.7619 6.16693L29.9206 6.16693L29.9206 25.7778Z" fill="white"/>
<ellipse rx="0.895062" ry="0.90625" transform="matrix(1 0 0 -1 4.47709 2.71875)" fill="#00BAFF"/>
<ellipse rx="0.895062" ry="0.90625" transform="matrix(1 0 0 -1 8.05522 2.71875)" fill="#00BAFF"/>
<ellipse rx="0.895061" ry="0.90625" transform="matrix(1 0 0 -1 11.6372 2.71875)" fill="#00BAFF"/>
<path d="M13.4245 10.875L8.94922 15.4063L13.4245 19.9375M18.7949 10.875L23.2702 15.4063L18.7949 19.9375" stroke="#00BAFF"/>
</svg>
