<svg width="24" height="24" viewBox="0 0 24 24" fill="none" xmlns="http://www.w3.org/2000/svg">
<path d="M12.001 7.5C9.34085 7.5 7.50098 9.33984 7.50098 12C7.50098 14.6602 9.34082 16.5 12.001 16.5C14.6611 16.5 16.501 14.6602 16.501 12C16.501 9.33984 14.6612 7.5 12.001 7.5ZM12.001 15.1263C10.2807 15.1263 8.87678 13.7224 8.87678 12.0021C8.87678 10.2818 10.2807 8.87791 12.001 8.87791C13.7213 8.87791 15.1252 10.2818 15.1252 12.0021C15.1252 13.7224 13.7213 15.1263 12.001 15.1263ZM17.0049 5.87791C16.3838 5.87791 15.8823 6.37947 15.8823 7.00056C15.8823 7.62166 16.3838 8.12322 17.0049 8.12322C17.626 8.12322 18.1276 7.624 18.1276 7.00056C18.1278 6.85308 18.0988 6.70701 18.0425 6.57072C17.9861 6.43443 17.9034 6.3106 17.7992 6.20631C17.6949 6.10203 17.571 6.01934 17.4348 5.96299C17.2985 5.90663 17.1524 5.87772 17.0049 5.87791ZM21.0009 12.0006C21.0009 10.7069 21.0735 9.29205 21.0009 8.00065C20.9282 6.50065 20.7854 5.4115 19.6885 4.31463C18.5893 3.21541 17.3823 3.07484 15.8823 3.00219C14.5885 2.92953 13.2924 3.00219 12.001 3.00219C10.7073 3.00219 9.29238 2.92799 8.00098 3.00065C6.50098 3.0733 5.59785 3.40377 4.50098 4.50065C3.40176 5.59987 3.07363 6.50065 3.00098 8.00065C2.92832 9.2944 3.00148 10.7092 3.00148 12.0006C3.00148 13.2921 2.92823 14.7092 3.00089 16.0006C3.07355 17.5006 3.21663 18.3286 4.3135 19.4254C5.41272 20.5246 6.50089 20.928 8.00089 21.0006C9.29464 21.0733 10.7096 21.0006 12.001 21.0006C13.2948 21.0006 14.7095 21.0733 16.0009 21.0006C17.5009 20.928 18.5795 20.7865 19.6763 19.6896C20.7756 18.5904 20.9282 17.0006 21.0009 15.5006C21.0759 14.2092 21.0009 13.2944 21.0009 12.0006ZM19.3088 17.5287C19.1377 17.9553 18.9315 18.274 18.601 18.6021C18.2705 18.9326 17.9541 19.1388 17.5276 19.3099C16.2948 19.7998 13.3674 19.6896 12.001 19.6896C10.6346 19.6896 7.70491 19.7998 6.4721 19.3123C6.04553 19.1412 5.72678 18.9349 5.39866 18.6045C5.06819 18.274 4.86194 17.9576 4.69085 17.531C4.20335 16.2959 4.3135 13.3685 4.3135 12.0021C4.3135 10.6357 4.20335 7.70603 4.69085 6.47322C4.86194 6.04666 5.06819 5.72791 5.39866 5.39978C5.72913 5.07166 6.04553 4.86306 6.4721 4.69197C7.70491 4.20447 10.6346 4.31463 12.001 4.31463C13.3674 4.31463 16.2971 4.20447 17.5299 4.69197C17.9565 4.86306 18.2752 5.06931 18.6033 5.39978C18.9338 5.73025 19.1401 6.04666 19.3112 6.47322C19.7987 7.70603 19.6885 10.6357 19.6885 12.0021C19.6885 13.3685 19.7987 16.2959 19.3088 17.5287Z" fill="white"/>
</svg>
