<svg width="32" height="32" viewBox="0 0 32 32" fill="none" xmlns="http://www.w3.org/2000/svg">
<path fill-rule="evenodd" clip-rule="evenodd" d="M6.03305 20.3637C6.51186 20.0884 7.12314 20.2535 7.39838 20.7323C8.28218 22.2697 9.54099 23.5583 11.0574 24.4777C12.5738 25.3972 14.2983 25.9176 16.0702 25.9905C16.622 26.0132 17.051 26.4789 17.0283 27.0307C17.0056 27.5825 16.5399 28.0115 15.9881 27.9888C13.8787 27.9021 11.8256 27.2825 10.0204 26.1879C8.21518 25.0933 6.7166 23.5593 5.66446 21.729C5.38921 21.2502 5.55424 20.6389 6.03305 20.3637Z" fill="white"/>
<path fill-rule="evenodd" clip-rule="evenodd" d="M26.967 10.6363C26.4881 10.9116 25.8769 10.7465 25.6016 10.2677C24.7178 8.73029 23.459 7.44173 21.9426 6.52226C20.4262 5.60278 18.7017 5.08236 16.9298 5.00952C16.378 4.98683 15.949 4.5211 15.9717 3.96928C15.9944 3.41746 16.4601 2.98852 17.0119 3.0112C19.1213 3.09792 21.1744 3.71748 22.9796 4.81209C24.7848 5.9067 26.2834 7.44069 27.3355 9.27099C27.6108 9.7498 27.4458 10.3611 26.967 10.6363Z" fill="white"/>
<path fill-rule="evenodd" clip-rule="evenodd" d="M8 4C6.89543 4 6 4.89543 6 6C6 7.10457 6.89543 8 8 8C9.10457 8 10 7.10457 10 6C10 4.89543 9.10457 4 8 4ZM4 6C4 3.79086 5.79086 2 8 2C10.2091 2 12 3.79086 12 6C12 8.20914 10.2091 10 8 10C5.79086 10 4 8.20914 4 6Z" fill="#00BAFF"/>
<path fill-rule="evenodd" clip-rule="evenodd" d="M24 15C22.8954 15 22 15.8954 22 17C22 18.1046 22.8954 19 24 19C25.1046 19 26 18.1046 26 17C26 15.8954 25.1046 15 24 15ZM20 17C20 14.7909 21.7909 13 24 13C26.2091 13 28 14.7909 28 17C28 19.2091 26.2091 21 24 21C21.7909 21 20 19.2091 20 17Z" fill="#00BAFF"/>
<path fill-rule="evenodd" clip-rule="evenodd" d="M8 13C5.79086 13 4 14.7909 4 17V18C4 18.5523 3.55228 19 3 19C2.44772 19 2 18.5523 2 18V17C2 13.6863 4.68629 11 8 11C11.3137 11 14 13.6863 14 17V18C14 18.5523 13.5523 19 13 19C12.4477 19 12 18.5523 12 18V17C12 14.7909 10.2091 13 8 13Z" fill="#00BAFF"/>
<path fill-rule="evenodd" clip-rule="evenodd" d="M24 24C21.7909 24 20 25.7909 20 28V29C20 29.5523 19.5523 30 19 30C18.4477 30 18 29.5523 18 29V28C18 24.6863 20.6863 22 24 22C27.3137 22 30 24.6863 30 28V29C30 29.5523 29.5523 30 29 30C28.4477 30 28 29.5523 28 29V28C28 25.7909 26.2091 24 24 24Z" fill="#00BAFF"/>
</svg>
