<svg width="40" height="40" viewBox="0 0 40 40" fill="none" xmlns="http://www.w3.org/2000/svg">
<path fill-rule="evenodd" clip-rule="evenodd" d="M23.6985 31.6051C23.5412 32.1359 23.0536 32.5 22.5 32.5L17.5 32.5C16.9464 32.5 16.4588 32.1359 16.3015 31.6051L11.3015 14.7301C11.1928 14.3632 11.2581 13.9668 11.4788 13.6541L18.9788 3.02915C19.213 2.69733 19.5938 2.5 20 2.5C20.4061 2.5 20.787 2.69733 21.0212 3.02915L28.5212 13.6541C28.7419 13.9668 28.8072 14.3632 28.6985 14.7301L23.6985 31.6051ZM21.5666 30L26.1294 14.6008L20 5.91757L13.8706 14.6008L18.4333 30L21.5666 30Z" fill="#00BAFF"/>
<path fill-rule="evenodd" clip-rule="evenodd" d="M26.25 36.25C26.25 36.9404 25.6904 37.5 25 37.5L15 37.5C14.3096 37.5 13.75 36.9404 13.75 36.25L13.75 31.25C13.75 30.5596 14.3096 30 15 30L25 30C25.6904 30 26.25 30.5596 26.25 31.25L26.25 36.25ZM23.75 35L23.75 32.5L16.25 32.5L16.25 35L23.75 35Z" fill="white"/>
<circle cx="20" cy="18" r="2" fill="#00BAFF"/>
<line x1="20" y1="6" x2="20" y2="17" stroke="#00BAFF" stroke-width="2"/>
</svg>
